<?xml version="1.0" encoding="utf-8"?>
<!-- Generator: Adobe Illustrator 24.0.1, SVG Export Plug-In . SVG Version: 6.00 Build 0)  -->
<svg version="1.1" id="Layer_1" xmlns="http://www.w3.org/2000/svg" xmlns:xlink="http://www.w3.org/1999/xlink" x="0px" y="0px"
	 viewBox="0 0 216 45.77" style="enable-background:new 0 0 216 45.77;" xml:space="preserve">
<style type="text/css">
	.st0{fill:#FFFFFF;}
</style>
<g>
	<g>
		<g>
			<path class="st0" d="M38.9,22.24l21.49,0l0,16.52h-4.3l-1.57-4c-3.34,2.93-9.49,4.82-16.18,4.82c-8.39,0-12.49-1.94-15.01-3.48
				c-7.51-4.47-7.71-9.76-7.71-13.03c0-7.53,7.23-16.01,23.2-16.01c9.14,0,19.31,3.27,20.74,10.2h-6.41
				c-2.11-5.38-9.28-6.5-14.67-6.5c-8.8,0-16.04,4.43-16.04,12.52c0,6.28,3.27,12.74,16.31,12.74c2.46,0,6.41-0.17,10.03-1.98
				c4.3-2.15,5.39-4.91,5.39-8.22H38.9L38.9,22.24z"/>
			<polygon class="st0" points="70.63,7.87 70.63,38.76 102.09,38.76 102.09,35.06 77.25,35.06 77.25,7.87 			"/>
			<rect x="110.29" y="7.87" class="st0" width="6.62" height="30.89"/>
		</g>
		<path class="st0" d="M120.41,9.24V8.73l0.34,0c0.18,0,0.36,0.04,0.36,0.24c0,0.26-0.19,0.27-0.4,0.27H120.41z M120.41,9.46h0.29
			l0.44,0.72h0.28l-0.47-0.73c0.24-0.03,0.43-0.16,0.43-0.46c0-0.33-0.19-0.47-0.59-0.47l-0.63,0v1.66l0.25,0V9.46z M120.72,10.79
			c0.79,0,1.46-0.61,1.46-1.45c0-0.83-0.67-1.44-1.46-1.44c-0.79,0-1.46,0.61-1.46,1.44C119.25,10.18,119.93,10.79,120.72,10.79
			 M119.54,9.34c0-0.68,0.51-1.2,1.17-1.2c0.65,0,1.17,0.51,1.17,1.2c0,0.69-0.52,1.21-1.17,1.21
			C120.06,10.55,119.54,10.04,119.54,9.34"/>
	</g>
	<g>
		<g>
			<path class="st0" d="M130.88,7.82h0.74v6.67h-0.74V7.82z"/>
			<path class="st0" d="M133.2,7.82h0.75v6.01h2.54v0.66h-3.29V7.82z"/>
			<path class="st0" d="M137.43,7.82h0.75v6.01h2.54v0.66h-3.29V7.82z"/>
			<path class="st0" d="M142.39,7.82v4.23c0,0.51,0,0.89,0.32,1.34c0.23,0.33,0.68,0.56,1.16,0.56c0.48,0,0.92-0.22,1.15-0.55
				c0.32-0.44,0.32-0.83,0.32-1.35V7.82h0.74v4.23c0.01,0.78-0.09,1.54-0.76,2.06c-0.37,0.32-0.87,0.5-1.44,0.5
				c-0.47,0-1.06-0.13-1.47-0.5c-0.7-0.57-0.76-1.33-0.76-2.06V7.82H142.39z"/>
			<path class="st0" d="M147.62,14.49V7.82h1.05l2.47,5.6l2.46-5.6h1.05v6.67h-0.7l0.02-5.93l-2.59,5.93h-0.48l-2.6-5.93l0.02,5.93
				H147.62z"/>
			<path class="st0" d="M156.21,7.82h0.74v6.67h-0.74V7.82z"/>
			<path class="st0" d="M163.19,13.39l-0.01-5.57h0.72v6.67h-0.72l-3.96-5.62l0.02,5.62h-0.72V7.82h0.76L163.19,13.39z"/>
			<path class="st0" d="M165.67,14.49h-0.8l2.79-6.67h0.72l2.76,6.67h-0.81l-0.78-1.88h-3.11L165.67,14.49z M167.99,8.66L166.66,12
				h2.66L167.99,8.66z"/>
			<path class="st0" d="M172.44,8.48h-1.64V7.82h4.04v0.66h-1.65v6.01h-0.75V8.48z"/>
			<path class="st0" d="M175.8,7.82h0.74v6.67h-0.74V7.82z"/>
			<path class="st0" d="M182.78,13.39l-0.01-5.57h0.72v6.67h-0.72l-3.96-5.62l0.02,5.62h-0.72V7.82h0.76L182.78,13.39z"/>
			<path class="st0" d="M190.52,9.55c-0.21-0.29-0.46-0.53-0.75-0.72c-0.43-0.3-0.96-0.47-1.55-0.47c-1.46,0-2.73,1.12-2.73,2.79
				c0,1.7,1.28,2.81,2.74,2.81c0.7,0,1.33-0.24,1.79-0.6c0.47-0.37,0.79-0.87,0.9-1.4h-3.32v-0.61h4.18
				c-0.01,0.39-0.1,0.88-0.3,1.29c-0.58,1.25-1.91,1.98-3.25,1.98c-1.95,0-3.49-1.5-3.49-3.47c0-2,1.57-3.44,3.5-3.44
				c1.35,0,2.61,0.76,3.13,1.85H190.52z"/>
			<path class="st0" d="M132.48,24.3l-2.15-4.33h0.81l1.71,3.61l1.7-3.61h0.81l-2.15,4.33v2.34h-0.75V24.3z"/>
			<path class="st0" d="M135.69,23.32c0-2.06,1.6-3.47,3.48-3.47c1.96,0,3.48,1.5,3.48,3.45s-1.51,3.45-3.48,3.45
				C137.2,26.76,135.69,25.23,135.69,23.32L135.69,23.32z M136.44,23.3c0,1.57,1.18,2.8,2.74,2.8c1.58,0,2.73-1.27,2.73-2.8
				c0-1.52-1.15-2.79-2.74-2.79C137.61,20.51,136.44,21.75,136.44,23.3L136.44,23.3z"/>
			<path class="st0" d="M144.64,19.97v4.23c0,0.51,0,0.89,0.32,1.34c0.23,0.33,0.68,0.56,1.16,0.56c0.48,0,0.92-0.22,1.15-0.55
				c0.32-0.44,0.32-0.83,0.32-1.35v-4.23h0.74v4.23c0.01,0.78-0.09,1.54-0.76,2.06c-0.37,0.32-0.87,0.5-1.44,0.5
				c-0.47,0-1.06-0.13-1.47-0.5c-0.7-0.57-0.76-1.33-0.76-2.06v-4.23H144.64z"/>
			<path class="st0" d="M149.81,19.97h1.74c1.05,0,1.53,0.13,1.88,0.34c0.54,0.33,0.91,1.04,0.91,1.79c0.01,0.45-0.12,0.93-0.4,1.31
				c-0.4,0.54-0.88,0.67-1.49,0.73l1.66,2.5h-0.81l-1.88-2.91h0.22c0.47,0,1.12-0.01,1.48-0.34c0.35-0.34,0.51-0.75,0.51-1.23
				c0-0.5-0.24-1.02-0.66-1.29c-0.33-0.22-0.75-0.24-1.35-0.24h-1.05v6.01h-0.75V19.97z"/>
			<path class="st0" d="M159.91,19.97c0.94,0,1.38,0.11,1.79,0.42c0.44,0.34,0.71,0.96,0.71,1.59c0,0.63-0.28,1.27-0.69,1.59
				c-0.44,0.34-0.89,0.45-1.76,0.45h-1.07v2.62h-0.75v-6.67H159.91z M158.9,23.36h1.06c0.56,0,0.9-0.06,1.24-0.28
				c0.29-0.19,0.5-0.61,0.5-1.08c0-0.48-0.21-0.9-0.5-1.09c-0.33-0.22-0.68-0.28-1.25-0.28h-1.05V23.36z"/>
			<path class="st0" d="M162.88,26.64h-0.8l2.79-6.67h0.72l2.76,6.67h-0.81l-0.78-1.88h-3.11L162.88,26.64z M165.2,20.81l-1.33,3.35
				h2.66L165.2,20.81z"/>
			<path class="st0" d="M169.66,20.63h-1.64v-0.66h4.04v0.66h-1.65v6.01h-0.75V20.63z"/>
			<path class="st0" d="M173.01,26.64v-6.67h0.74v2.97h3.22v-2.97h0.75v6.67h-0.75v-3.05h-3.22v3.05H173.01z"/>
			<path class="st0" d="M131.74,33.3h-1.44v-1.18h4.22v1.18h-1.43v5.49h-1.34V33.3z"/>
			<path class="st0" d="M134.81,35.51c0-2.14,1.64-3.52,3.5-3.52c2.02,0,3.51,1.57,3.51,3.46c0,1.89-1.48,3.46-3.52,3.46
				C136.25,38.92,134.81,37.3,134.81,35.51L134.81,35.51z M136.15,35.45c0,1.22,0.87,2.28,2.17,2.28c1.35,0,2.15-1.17,2.15-2.27
				c0-1.12-0.79-2.29-2.16-2.29C136.98,33.17,136.15,34.27,136.15,35.45L136.15,35.45z"/>
			<path class="st0" d="M150.94,34.16c-0.13-0.21-0.3-0.4-0.5-0.55c-0.34-0.27-0.77-0.44-1.28-0.44c-1.07,0-2.16,0.81-2.16,2.26
				c0,1.51,1.1,2.3,2.16,2.3c0.53,0,0.98-0.15,1.33-0.41c0.35-0.25,0.59-0.61,0.69-1.01h-2.49v-1.08h4.04
				c0.02,0.44-0.04,1.12-0.3,1.68c-0.62,1.39-2.06,2-3.26,2c-1.99,0-3.52-1.54-3.52-3.48c0-1.99,1.59-3.45,3.54-3.45
				c1.51,0,2.83,0.96,3.26,2.17H150.94z"/>
			<path class="st0" d="M153.85,32.12h2.02c1.04,0,1.63,0.16,1.99,0.42c0.55,0.4,0.85,1.07,0.85,1.81c0,0.49-0.13,0.92-0.36,1.24
				c-0.29,0.42-0.67,0.61-1.1,0.72l1.49,2.47h-1.41l-1.79-3.1h0.26c0.44,0,0.92-0.03,1.2-0.24c0.26-0.22,0.42-0.57,0.42-0.97
				c0-0.41-0.2-0.78-0.5-0.96c-0.24-0.15-0.57-0.21-0.95-0.21h-0.78v5.49h-1.34V32.12z"/>
			<path class="st0" d="M159.77,32.12h3.74v1.18h-2.4v1.52h2.35v1.18h-2.35v1.61h2.4v1.18h-3.74V32.12z"/>
			<path class="st0" d="M165.7,38.79h-1.46l2.71-6.67h1.18l2.64,6.67h-1.47l-0.49-1.31h-2.63L165.7,38.79z M167.48,33.7l-0.95,2.71
				h1.92L167.48,33.7z"/>
			<path class="st0" d="M172,33.3h-1.44v-1.18h4.22v1.18h-1.43v5.49H172V33.3z"/>
			<path class="st0" d="M179.97,36.74l-0.03-4.63h1.29v6.67h-1.19l-3.08-4.62l0.03,4.62h-1.29v-6.67h1.2L179.97,36.74z"/>
			<path class="st0" d="M182.73,32.12h3.74v1.18h-2.4v1.52h2.35v1.18h-2.35v1.61h2.4v1.18h-3.74V32.12z"/>
			<path class="st0" d="M188.74,36.72c0.04,0.9,0.65,1.07,0.94,1.07c0.51,0,0.91-0.42,0.91-0.88c0-0.57-0.48-0.71-1.41-1.08
				c-0.5-0.18-1.67-0.6-1.67-1.86c0-1.28,1.13-1.98,2.21-1.98c0.88,0,2.06,0.47,2.11,1.95h-1.33c-0.05-0.31-0.17-0.82-0.83-0.82
				c-0.44,0-0.82,0.31-0.82,0.76c-0.01,0.5,0.35,0.62,1.48,1.09c1.02,0.44,1.59,0.93,1.59,1.88c0,1.07-0.66,2.07-2.23,2.07
				c-1.52,0-2.3-0.91-2.29-2.2H188.74z"/>
			<path class="st0" d="M194.01,36.72c0.04,0.9,0.65,1.07,0.94,1.07c0.51,0,0.91-0.42,0.91-0.88c0-0.57-0.48-0.71-1.41-1.08
				c-0.5-0.18-1.67-0.6-1.67-1.86c0-1.28,1.13-1.98,2.21-1.98c0.88,0,2.06,0.47,2.11,1.95h-1.33c-0.05-0.31-0.17-0.82-0.83-0.82
				c-0.44,0-0.82,0.31-0.82,0.76c-0.01,0.5,0.35,0.62,1.48,1.09c1.02,0.44,1.59,0.93,1.59,1.88c0,1.07-0.66,2.07-2.23,2.07
				c-1.52,0-2.3-0.91-2.29-2.2H194.01z"/>
		</g>
	</g>
</g>
</svg>
