<?xml version="1.0" encoding="UTF-8"?>
<svg xmlns="http://www.w3.org/2000/svg" width="134" height="134" viewBox="0 0 134 134" fill="none">
  <circle cx="66.5374" cy="66.5374" r="66.5374" fill="#005CFF"></circle>
  <path d="M117.775 53.3584C117.775 49.4648 115.853 47.238 112.363 47.238C108.873 47.238 106.447 49.4623 106.447 53.3584V66.8121C106.447 66.9735 106.414 67.1122 106.354 67.2282H117.871C117.81 67.1122 117.777 66.971 117.777 66.8121V53.3584H117.775Z" fill="white"></path>
  <path d="M55.4223 46.8018C50.7192 46.8018 46.9062 50.5844 46.9062 55.2523C46.9062 55.5524 46.9239 55.8474 46.9542 56.1399L62.3724 50.3827C60.829 48.2215 58.2946 46.8043 55.4223 46.8043V46.8018Z" fill="white"></path>
  <path d="M53.4658 109.269L49.6504 100.062L46.662 109.257L41.1419 111.37L38.9076 112.225L37.4727 112.775L46.662 115.851L50.1825 124.95L53.4608 115.846L62.3577 112.24L53.4633 109.269H53.4658ZM49.9252 112.505V112.51L49.9202 112.515H49.9152L49.9101 112.51V112.505L49.9152 112.5H49.9202L49.9252 112.505Z" fill="white"></path>
  <path d="M49.9225 112.515L49.9277 112.512V112.505L49.9225 112.5H49.9147L49.9121 112.505V112.512L49.9147 112.515H49.9225Z" fill="white"></path>
  <path d="M62.3621 112.242L53.4678 109.269L49.6523 100.064L53.4678 109.269L62.3621 112.242Z" fill="white"></path>
  <path d="M49.9225 112.5L49.9277 112.505L49.9225 112.5H49.9147L49.9121 112.505L49.9147 112.5H49.9225Z" fill="white"></path>
  <path d="M53.4648 115.848L62.3617 112.242L53.4648 115.848Z" fill="white"></path>
  <path d="M42.2679 91.6189L38.2734 93.1471L42.2679 94.4861L43.7987 98.4403L45.2235 94.4836L49.0919 92.9151L45.226 91.6239L43.5667 87.6218L42.2679 91.6189ZM43.6802 93.0311H43.6827V93.0361H43.6776V93.0311H43.6802Z" fill="white"></path>
  <path d="M43.6828 93.0362V93.0337V93.0311V93.0286H43.6803L43.6777 93.0311V93.0337L43.6803 93.0362H43.6828Z" fill="white"></path>
  <path d="M43.6809 93.0286V93.0302V93.0286H43.6793L43.6777 93.0302L43.6793 93.0286H43.6809Z" fill="white"></path>
  <path d="M67.0773 93.4621H59.7894V75.0858C59.7894 74.8034 59.6002 74.6143 59.3178 74.6143H56.7103C56.4278 74.6143 56.2715 74.8034 56.2715 75.0858V96.1327C56.2715 96.4151 56.4278 96.6042 56.7103 96.6042H67.0773C67.3598 96.6042 67.5489 96.4151 67.5489 96.1327V93.9337C67.5489 93.6512 67.3598 93.4621 67.0773 93.4621Z" fill="white"></path>
  <path d="M85.1719 81.2117H82.8796C82.5972 81.2117 82.4408 81.4008 82.4408 81.6833L82.3778 83.7562C81.3086 81.9657 79.4878 80.8359 76.9433 80.8359C72.5453 80.8359 69.5293 84.3538 69.5293 88.9082C69.5293 93.4625 72.5453 96.9804 76.9433 96.9804C79.4576 96.9804 81.2783 95.8809 82.3778 94.0904L82.4408 96.1331C82.4408 96.4155 82.5972 96.6047 82.8796 96.6047H85.1719C85.4544 96.6047 85.6107 96.4155 85.6107 96.1331V81.6833C85.6107 81.4008 85.4544 81.2117 85.1719 81.2117ZM77.6015 93.8711C74.8377 93.8711 72.8278 91.8915 72.8278 88.9082C72.8278 85.9249 74.8377 83.9453 77.6015 83.9453C80.3654 83.9453 82.2517 85.9552 82.2517 88.941C82.2517 91.9268 80.3352 93.8736 77.6015 93.8736V93.8711Z" fill="white"></path>
  <path d="M98.4902 80.8331C96.1021 80.8331 94.3116 81.8393 93.2121 83.5037V74.6144C93.2121 74.332 93.0558 74.1428 92.7733 74.1428H90.2591C89.9767 74.1428 89.8203 74.332 89.8203 74.6144V96.1328C89.8203 96.4152 89.9767 96.6044 90.2591 96.6044H92.5514C92.8339 96.6044 92.9902 96.4152 92.9902 96.1328L93.0532 94.0902C94.1527 95.8806 95.9735 96.9801 98.4877 96.9801C102.886 96.9801 105.902 93.4925 105.902 88.9079C105.902 84.3233 102.886 80.8356 98.4877 80.8356L98.4902 80.8331ZM97.8295 93.8708C95.0959 93.8708 93.1793 91.8912 93.1793 88.9381C93.1793 85.9851 95.0959 83.9425 97.8295 83.9425C100.563 83.9425 102.603 85.9523 102.603 88.9054C102.603 91.8584 100.593 93.8682 97.8295 93.8682V93.8708Z" fill="white"></path>
  <path d="M115.921 87.9654L114.068 87.2113C112.875 86.7398 112.058 86.2682 112.058 85.2015C112.058 84.1348 112.875 83.5674 114.068 83.5674C115.074 83.5674 116.015 84.0062 116.988 84.919C117.271 85.1712 117.49 85.2015 117.742 84.919L118.716 83.7565C118.905 83.5674 118.935 83.3177 118.746 83.0958C117.553 81.6205 115.793 80.8337 113.909 80.8337C111.175 80.8337 108.82 82.4679 108.82 85.2317C108.82 87.398 110.295 88.6563 112.245 89.4406L114.128 90.1946C115.384 90.7292 116.108 91.2311 116.108 92.3003C116.108 93.5259 115.135 94.0908 113.753 94.0908C112.371 94.0908 111.239 93.4629 110.109 92.4894C109.857 92.2701 109.574 92.2373 109.355 92.5525L108.538 93.6822C108.318 93.9975 108.318 94.3102 108.507 94.5296C109.577 95.8182 111.397 96.9808 113.912 96.9808C116.865 96.9808 119.439 95.4097 119.472 92.3936C119.472 90.0383 117.901 88.7496 115.921 87.9654Z" fill="white"></path>
  <path d="M113.586 19.4884C101.02 6.91979 84.3109 0 66.5373 0C48.7638 0 32.0544 6.92231 19.4884 19.4884C6.91978 32.057 0 48.7638 0 66.5373C0 84.3109 6.9223 101.02 19.4884 113.586C32.0544 126.155 48.7638 133.075 66.5373 133.075C84.3109 133.075 101.02 126.152 113.586 113.586C126.155 101.02 133.075 84.3109 133.075 66.5373C133.075 48.7638 126.152 32.0544 113.586 19.4884ZM17.0397 41.8238C18.462 41.8238 19.6145 42.9763 19.6145 44.3986C19.6145 45.8209 18.462 46.9733 17.0397 46.9733C15.6174 46.9733 14.465 45.8209 14.465 44.3986C14.465 42.9763 15.6174 41.8238 17.0397 41.8238ZM112.338 112.341C100.105 124.574 83.8368 131.312 66.5373 131.312C61.0525 131.312 55.671 130.634 50.4887 129.317L50.2441 129.996L49.9238 129.168C38.9818 126.286 28.9501 120.554 20.7367 112.341C8.66738 100.269 1.95186 84.2731 1.77282 67.2308H12.6594C12.6417 67.7579 12.6316 68.2875 12.6316 68.8145C12.6316 86.4771 22.0707 102.46 36.8887 111.11L39.0297 110.29C24.0831 102.165 14.4675 86.4469 14.3969 69.0062C14.3969 68.9986 14.3944 50.5644 14.3944 50.5644C14.3944 50.1609 14.6465 49.8936 15.103 49.8936H19.2009C19.6573 49.8936 19.9095 50.1609 19.9095 50.5644V67.2308H28.8972C28.9072 67.8285 28.9123 68.4766 28.9123 69.0995C28.9123 77.5424 32.4176 85.4709 38.5909 91.1399L40.4469 90.4287C34.2282 85.0624 30.6775 77.3407 30.6775 69.0995C30.6775 68.6279 30.7179 37.2241 30.7179 37.2241H23.4854C23.0315 37.2241 22.7768 36.9215 22.7768 36.465V32.9245C22.7768 32.468 23.029 32.1654 23.4854 32.1654H43.5664C44.0203 32.1654 44.3255 32.468 44.3255 32.9245V36.465C44.3255 36.9215 44.0228 37.2241 43.5664 37.2241H36.3843V67.2308H49.8759C46.1512 65.5261 43.3596 62.1621 42.4568 58.0944C42.4391 58.0087 42.4165 57.928 42.3988 57.8422C42.2298 57.005 42.1391 56.14 42.1391 55.2523C42.1391 47.972 48.088 42.071 55.4263 42.071C60.3489 42.071 64.6359 44.734 66.9333 48.6806C66.9761 48.7562 67.0266 48.8268 67.0695 48.905C67.3292 49.3741 67.5612 49.8608 67.7629 50.3626C67.9647 50.8644 68.2043 51.7849 68.3631 52.438C68.4665 52.8642 68.2345 53.2954 67.8235 53.4493L48.7991 60.5532C50.3601 62.4722 52.7482 63.7029 55.4263 63.7029C58.3214 63.7029 60.8759 62.268 62.4142 60.0765C62.7295 59.6277 63.3649 59.5646 63.7634 59.9404L65.9296 61.978C66.26 62.2881 66.3205 62.8051 66.0481 63.1682C64.7292 64.9108 62.9816 66.3129 60.9642 67.2359H80.8081C76.042 65.337 72.8595 60.7574 72.8595 55.1338C72.8595 47.75 78.3721 42.1845 85.7584 42.1845C89.8059 42.1845 93.0918 43.8539 95.2176 46.4841C95.5202 46.8876 95.5202 47.2432 95.2176 47.5458L92.9405 49.7196C92.537 50.123 92.0301 50.0222 91.7275 49.6691C90.2598 48.2014 88.5904 47.2406 86.0131 47.2406C81.3604 47.2406 78.1224 50.5795 78.1224 55.1313C78.1224 59.6831 81.3604 63.1229 86.114 63.1229C88.6433 63.1229 90.3128 62.1621 91.7275 60.6944C92.083 60.3388 92.5874 60.2379 92.9934 60.6439L95.2681 62.8202C95.5732 63.1228 95.5732 63.4784 95.2681 63.8819C94.098 65.3294 92.5748 66.4844 90.7742 67.2334H101.078C101.018 67.1174 100.985 66.9761 100.985 66.8173V32.1679C100.985 31.7115 101.237 31.4089 101.694 31.4089H105.741C106.197 31.4089 106.45 31.7115 106.45 32.1679V43.8085C108.802 40.9185 122.809 39.4988 123.242 52.3498V66.8148C123.242 66.9761 123.202 67.1148 123.134 67.2308H131.307C131.13 84.2731 124.415 100.269 112.343 112.341H112.338Z" fill="white"></path>
  <path d="M50.246 129.996L50.4907 129.317C50.3015 129.269 50.1149 129.219 49.9258 129.168L50.246 129.996Z" fill="white"></path>
  <path d="M14.4248 67.231H14.3945V68.9584C14.3945 68.9836 14.3945 68.9987 14.397 69.0063C14.397 68.9433 14.397 68.8777 14.397 68.8146C14.397 68.2876 14.4097 67.758 14.4273 67.231H14.4248Z" fill="white"></path>
  <path d="M14.4248 67.2308C14.4298 67.0568 14.4349 66.8803 14.4424 66.7063H14.3945V67.2308H14.4248Z" fill="white"></path>
  <path d="M30.7414 67.2309C30.744 67.183 30.7465 67.1351 30.749 67.0872H30.7188V67.2309H30.7414Z" fill="white"></path>
</svg>
